<svg xmlns="http://www.w3.org/2000/svg" width="512" height="512" viewBox="0 0 512 512"><path stroke="None" fill="#141517" d="M250 119c-9.86-4.53-12.4-12.34-22.25-17.75-6.75-6.25-14.32-13.43-7.52-22.02S235.07 66.18 236 56c.92-10.18-11.39-16.82-20.93-19.07-9.54-2.26-19.99-7.91-32.05-7.91C170.96 29.03 167 35 168 51s0 27 0 40-.46 27.04 0 40 .11 26.11 0 39 .72 27.37 0 40 6.25 21.58 19 20 17.92 7.85 22.07 17.93c4.16 10.07-6.96 22.4-18 20-11.03-2.4-21.38-4-32-7-10.61-3.01-22.8-6.95-34.07-5.93-11.26 1.02-21.51 4.33-30.92 9.08-9.42 4.75-21.26 7.95-31.08 7.92s-26.14-3.2-31.74 6.26c-5.6 9.46 10.82 16.55 18.52 18.96 7.7 2.41 21.94.93 31.2-2.24 9.25-3.18 19.22-7.07 28.8-11.2 9.57-4.14 23.49-4.6 34.21-2.77 10.73 1.82 20.55 7.37 20.01 19.99s-.01 27.24 0 40-.19 25.64-1 38-.05 27.92 0 40-.59 28.3-1 39-2 30 8 31c12.02 1.11 25-2 36-4 12-2 22.61-3.43 34-5-8-18-19.83-33.18-31-49 8.73-8.35 13.48-12.72 22.75-21.25 9.28-8.52 15.97 2.87 24 10.5s14.13 13.07 23.02 20.98c8.89 7.91 15.15-7.86 21.48-14.98 6.32-7.12 12.01-18.17 18.45-25.55 6.43-7.39 14.13-22.15 3.38-28.78-10.76-6.62-13.93-13.63-24.08-19.92 7.43-15.44-.28-49.23 20.33-55.67s48.62 1.48 68.99 3.33c20.37 1.85 39.5-15.65 58.68-5.66-5.17 3.61-6.89 23.34 1.25 19.25 8.14-4.1 6.69-13.57 12.98-19.02s5.51-16.85.55-23.01c-4.96-6.15-2.07-17.25-10.75-21.24-8.69-3.99-4.53 15.69-2.03 20.02-14.28-3.49-28.24-1.26-42.33 1.67-14.09 2.93-26.7 1.56-39.59-5.75-12.88-7.32.07-30.45-7.16-40.84-7.24-10.38-32.15-.55-43.25-4.75-11.09-4.21-13.01-21.18-15.68-32.32-2.66-11.14 9.81-20.28 18.26-27.76 8.45-7.49 19.03-19.72 10.5-31-8.52-11.28-10.35-18.04-20-28-9.66-9.96-22.32-10.71-33.05-3.56-10.74 7.16-17.5 11.33-25.7 21.31m-59-49c2 1 6-16 14-15 4 1 21.2 4.58 12.75 13.75-8.44 9.17-9.58 14.18-10.75 25.25s1 9 3 31c3 2 2.45-12.77 2-19 11.39 2.24 14.36 12.34 23.75 19.25S244.31 147.54 248 157c3 2 1-17 7-24 2-3 20.81-22.2 22-8s-.2 24.61 1 39c3 2 4-15 5-22 1-20 .44-18 6-26 3-3 9-5 15.68 3.32 4.84 4.6 2.41 11.33 4.3 18.7C311 147 312 135 315 131c15 8 5.96 19.13-3.25 25.75-9.21 6.63-15.48 16.51-21.05 25.95C287 191 286 197 290 220c1 1 .94-12.29 3-18 4.94 8.45 5 31 7 30 5-20 2 21 9 26 1 0 .93-27.97 12-25s26.06-5.36 32.25 2.75 2.94 23.84-3 30.5c-5.95 6.66-18.97 6.47-26.33-1.17-7.36-7.64-14.78 2.85-23 5.84-8.21 3-21.89 4.54-29.15-3.69s-16.43-1.85-24.46 2.08c-8.04 3.92-22.78.44-26.23-8.39-3.46-8.82-2.05-20.38-9.38-27.62-7.34-7.23-13.75-8.94-22.78-14.22s-11.36-14.15-12.25-24.75-2.1-23.84-1.67-35.33-.31-24.77 0-36V88c0-15 0-20 .33-33.67C177 44 191 57 191 70Z"/></svg>